<svg xmlns="http://www.w3.org/2000/svg" viewBox="0 0 64 64" width="64" height="64">
  <defs>
    <linearGradient id="g" x1="0" y1="0" x2="0" y2="1">
      <stop offset="0" stop-color="#f5c542" />
      <stop offset="1" stop-color="#d4a017" />
    </linearGradient>
  </defs>
  <rect width="64" height="64" rx="14" fill="#0a0e1a" />
  <path
    fill="url(#g)"
    d="M20 14h24v6c0 6-3 10-7 11v4h5v4h-4l1 5h-14l1-5h-4v-4h5v-4c-4-1-7-5-7-11v-6zm-6 2h6v4c0 3 1 5 3 6-3-1-9-4-9-10zm36 0c0 6-6 9-9 10 2-1 3-3 3-6v-4h6z"
  />
</svg>
